# xmcd
#
# Track frame offsets: 
#        150
#        18282
#        38234
#        55346
#        77652
#        95475
#        115337
#        133560
#        150009
#        173522
#        195071
#
# Disc length: 3217 seconds
#
# Revision: 0
# Processed by: cddbd v1.5.2PL0 Copyright (c) Steve Scherf et al.
# Submitted via: ExactAudioCopy v0.99pb1
#
DISCID=730c8f0b
DTITLE=Vic Tripp - Delusions And Insights
DYEAR=1998
DGENRE=Country
TTITLE0=Feel This
TTITLE1=Memory
TTITLE2=Unrequited Love
TTITLE3=I Don't Owe You
TTITLE4=Bite Me
TTITLE5=Bigger
TTITLE6=The Calling (I'm Going To Miss You)
TTITLE7=Lost In Antartica
TTITLE8=Wintertime Daze
TTITLE9=Drowning In A Blue Sea
TTITLE10=Waiting In Vain
EXTD=
EXTT0=
EXTT1=
EXTT2=
EXTT3=
EXTT4=
EXTT5=
EXTT6=
EXTT7=
EXTT8=
EXTT9=
EXTT10=
PLAYORDER=
